<svg xmlns="http://www.w3.org/2000/svg" xmlns:xlink="http://www.w3.org/1999/xlink" width="1750" zoomAndPan="magnify" viewBox="0 0 1312.5 299.999988" height="400" preserveAspectRatio="xMidYMid meet" version="1.0"><defs><g/><clipPath id="be4fe3e04f"><path d="M 710.910156 3.65625 L 1288.964844 3.65625 L 1288.964844 296.070312 L 710.910156 296.070312 Z M 710.910156 3.65625 " clip-rule="nonzero"/></clipPath></defs><g clip-path="url(#be4fe3e04f)"><path fill="#ff914d" d="M 1251.746094 4.871094 C 1256.550781 4.871094 1261.578125 4.921875 1265.832031 7.152344 C 1273.210938 11.015625 1275.988281 20.011719 1277.839844 28.136719 C 1287.226562 69.347656 1290.710938 111.902344 1288.152344 154.09375 C 1287.011719 172.769531 1284.457031 192.09375 1274.414062 207.875 C 1264.375 223.664062 1244.96875 234.882812 1226.894531 230.046875 C 1215.609375 227.023438 1206.273438 218.34375 1194.753906 216.390625 C 1173.71875 212.8125 1156.300781 232.277344 1145.457031 250.652344 C 1134.617188 269.027344 1123.046875 290.496094 1102.242188 295.210938 C 1083.675781 299.421875 1064.503906 287.589844 1053.984375 271.71875 C 1048.171875 262.949219 1042.4375 251.660156 1031.945312 250.878906 C 1027.988281 250.585938 1024.109375 251.976562 1020.429688 253.457031 C 993.542969 264.253906 964.191406 281.246094 937.691406 269.523438 C 910.121094 257.335938 903.667969 222.203125 896.722656 192.871094 C 894.964844 185.441406 892.800781 177.789062 887.792969 172.027344 C 867.941406 149.179688 826.960938 173.945312 801.042969 158.316406 C 785.234375 148.789062 780.097656 126.859375 763.984375 117.847656 C 756.070312 113.421875 746.542969 112.78125 738.355469 108.875 C 726.019531 102.988281 718.117188 90.1875 714.816406 76.917969 C 714.816406 76.917969 714.816406 76.914062 714.816406 76.914062 C 711.511719 63.640625 707.488281 33.75 715.949219 21.679688 C 723.46875 10.953125 745.261719 8.253906 757.648438 6.285156 C 788.453125 1.382812 821.597656 4.847656 852.652344 4.851562 C 938.414062 4.851562 1024.179688 4.855469 1109.9375 4.863281 C 1157.207031 4.867188 1204.476562 4.867188 1251.746094 4.871094 " fill-opacity="1" fill-rule="nonzero"/></g><g fill="#32373c" fill-opacity="1"><g transform="translate(-75.795511, 239.408205)"><g><path d="M 135.230469 -62.191406 C 135.230469 -43.390625 134.746094 -22.660156 123.660156 -6.507812 C 116.1875 4.339844 107.027344 10.125 95.214844 15.667969 C 94.25 16.148438 90.636719 17.597656 90.636719 18.800781 C 90.636719 19.523438 92.082031 19.765625 93.527344 19.765625 C 94.734375 19.765625 95.9375 19.523438 96.421875 19.523438 C 144.871094 13.257812 162.46875 -15.667969 162.46875 -61.949219 C 162.46875 -83.886719 162.226562 -111.367188 154.511719 -131.855469 C 150.898438 -141.496094 142.460938 -148.726562 131.855469 -148.726562 C 121.25 -148.726562 116.1875 -142.21875 107.265625 -139.085938 L 107.265625 -142.460938 C 107.265625 -153.308594 108.230469 -160.78125 109.195312 -169.21875 L 109.195312 -169.941406 C 109.195312 -174.039062 107.265625 -188.984375 104.132812 -196.9375 C 102.929688 -200.070312 101.480469 -202.242188 100.035156 -202.242188 C 99.070312 -202.242188 98.109375 -199.832031 96.660156 -196.457031 C 93.769531 -188.5 90.636719 -174.519531 89.910156 -171.628906 C 85.089844 -149.210938 79.304688 -127.273438 79.304688 -104.132812 C 79.304688 -94.007812 80.992188 -63.394531 95.457031 -63.394531 C 101 -63.394531 105.820312 -68.699219 105.820312 -74.003906 L 105.820312 -74.964844 C 105.820312 -88.707031 106.0625 -139.808594 124.140625 -139.808594 C 134.988281 -139.808594 135.230469 -82.921875 135.230469 -70.386719 Z M 135.230469 -62.191406 "/></g></g></g><g fill="#32373c" fill-opacity="1"><g transform="translate(163.567042, 239.408205)"><g><path d="M 125.105469 -32.78125 C 125.105469 -19.523438 141.015625 -2.652344 156.199219 -2.652344 C 179.101562 -2.652344 195.972656 -26.273438 195.972656 -47.96875 C 195.972656 -73.519531 177.171875 -87.742188 152.824219 -87.742188 C 136.433594 -87.742188 117.632812 -81.234375 102.6875 -74.726562 C 102.445312 -78.582031 102.445312 -82.4375 102.445312 -86.054688 C 102.445312 -94.734375 102.929688 -103.410156 103.652344 -112.089844 C 112.570312 -114.980469 147.28125 -124.863281 147.28125 -135.953125 C 147.28125 -144.871094 133.78125 -148.246094 126.792969 -148.246094 C 122.695312 -148.246094 111.367188 -141.980469 107.027344 -140.292969 C 107.507812 -145.113281 108.472656 -150.414062 108.472656 -155.476562 C 108.472656 -167.046875 98.832031 -177.652344 89.429688 -183.199219 C 87.5 -184.164062 84.125 -186.089844 81.957031 -186.089844 C 80.992188 -186.089844 79.789062 -185.609375 79.789062 -184.402344 L 79.789062 -183.921875 C 81.234375 -180.066406 83.402344 -174.761719 83.402344 -168.734375 C 83.402344 -156.199219 82.679688 -143.425781 81.957031 -130.890625 C 70.144531 -127.273438 57.851562 -121.488281 45.316406 -121.488281 C 40.738281 -121.488281 36.640625 -123.417969 32.542969 -123.417969 C 31.578125 -123.417969 30.132812 -123.175781 30.132812 -121.972656 C 30.132812 -120.765625 31.09375 -119.800781 31.578125 -119.078125 C 40.015625 -108.472656 52.550781 -104.375 65.808594 -104.375 C 70.867188 -104.375 75.929688 -105.097656 80.992188 -106.0625 C 80.992188 -99.3125 80.75 -92.324219 80.75 -85.332031 C 80.75 -78.339844 80.992188 -71.351562 80.992188 -64.359375 C 74.003906 -60.746094 42.664062 -41.703125 37.363281 -41.703125 C 35.433594 -41.703125 33.507812 -42.425781 31.578125 -42.425781 C 30.132812 -42.425781 29.890625 -41.703125 29.890625 -40.496094 C 29.890625 -31.578125 39.050781 -21.695312 47.96875 -21.695312 C 53.03125 -21.695312 57.128906 -24.585938 60.746094 -27.480469 C 80.992188 -16.875 76.171875 4.339844 89.910156 4.339844 C 101.722656 4.339844 105.578125 -13.980469 105.578125 -22.898438 C 105.578125 -35.675781 103.894531 -48.691406 103.167969 -61.46875 C 117.152344 -70.867188 137.398438 -81.234375 154.511719 -81.234375 C 168.496094 -81.234375 172.59375 -72.796875 172.59375 -59.78125 C 172.59375 -45.800781 158.609375 -26.273438 143.183594 -26.273438 C 133.78125 -26.273438 131.371094 -29.648438 127.757812 -33.507812 C 127.035156 -34.230469 126.550781 -35.917969 125.828125 -35.917969 L 125.585938 -35.917969 C 125.105469 -35.675781 125.105469 -34.953125 125.105469 -34.230469 Z M 188.984375 -86.777344 C 202.964844 -94.25 229.480469 -115.464844 229.480469 -132.09375 C 229.480469 -145.113281 213.8125 -154.03125 202.242188 -154.03125 C 199.832031 -154.03125 190.671875 -153.066406 190.671875 -149.691406 C 190.671875 -146.316406 193.324219 -145.835938 194.285156 -145.113281 C 198.382812 -141.980469 201.035156 -139.808594 201.035156 -132.335938 C 201.035156 -114.257812 183.4375 -86.777344 183.4375 -86.054688 C 183.4375 -85.574219 183.921875 -85.332031 184.402344 -85.332031 C 185.851562 -85.332031 187.539062 -86.296875 188.984375 -86.777344 Z M 81.714844 -32.058594 C 81.714844 -29.890625 81.714844 -27.238281 80.75 -25.792969 C 80.511719 -25.792969 66.289062 -30.371094 64.601562 -30.855469 C 70.386719 -35.433594 75.929688 -40.253906 81.476562 -44.835938 C 81.714844 -41.460938 81.714844 -38.085938 81.714844 -34.46875 Z M 81.714844 -32.058594 "/></g></g></g><g fill="#32373c" fill-opacity="1"><g transform="translate(402.929594, 239.408205)"><g><path d="M 122.695312 1.6875 C 122.9375 2.167969 123.417969 2.410156 123.898438 2.410156 C 125.347656 2.410156 127.273438 1.6875 129.683594 0.722656 C 170.179688 -13.738281 208.75 -43.628906 208.75 -91.117188 C 208.75 -138.121094 178.859375 -164.394531 132.820312 -164.394531 C 106.785156 -164.394531 76.652344 -154.273438 55.921875 -135.953125 C 39.050781 -121.007812 31.09375 -104.375 31.09375 -81.957031 L 31.09375 -80.027344 C 31.335938 -68.941406 44.113281 -36.878906 57.128906 -36.878906 C 77.859375 -36.878906 104.855469 -77.378906 113.292969 -94.25 C 118.355469 -104.617188 121.730469 -120.285156 121.730469 -131.855469 C 121.730469 -137.640625 120.285156 -149.933594 117.875 -155.238281 C 121.488281 -156.199219 125.347656 -156.441406 128.960938 -156.441406 C 135.46875 -156.441406 141.738281 -155.238281 147.523438 -152.34375 C 153.308594 -149.453125 159.816406 -146.800781 164.394531 -142.21875 C 175.964844 -130.648438 178.617188 -112.8125 178.617188 -97.144531 C 178.617188 -54.71875 161.023438 -26.996094 127.273438 -2.652344 C 124.382812 -0.480469 122.695312 0 122.695312 1.207031 Z M 111.847656 -153.789062 C 109.679688 -124.382812 79.304688 -73.28125 51.824219 -61.46875 C 50.621094 -60.984375 47.488281 -60.023438 46.28125 -60.023438 C 43.628906 -60.023438 43.390625 -62.914062 43.390625 -65.082031 C 43.390625 -98.589844 80.511719 -143.667969 111.847656 -153.789062 Z M 111.847656 -153.789062 "/></g></g></g><g fill="#32373c" fill-opacity="1"><g transform="translate(642.292146, 239.408205)"><g><path d="M 125.105469 -32.78125 C 125.105469 -19.523438 141.015625 -2.652344 156.199219 -2.652344 C 179.101562 -2.652344 195.972656 -26.273438 195.972656 -47.96875 C 195.972656 -73.519531 177.171875 -87.742188 152.824219 -87.742188 C 136.433594 -87.742188 117.632812 -81.234375 102.6875 -74.726562 C 102.445312 -78.582031 102.445312 -82.4375 102.445312 -86.054688 C 102.445312 -94.734375 102.929688 -103.410156 103.652344 -112.089844 C 112.570312 -114.980469 147.28125 -124.863281 147.28125 -135.953125 C 147.28125 -144.871094 133.78125 -148.246094 126.792969 -148.246094 C 122.695312 -148.246094 111.367188 -141.980469 107.027344 -140.292969 C 107.507812 -145.113281 108.472656 -150.414062 108.472656 -155.476562 C 108.472656 -167.046875 98.832031 -177.652344 89.429688 -183.199219 C 87.5 -184.164062 84.125 -186.089844 81.957031 -186.089844 C 80.992188 -186.089844 79.789062 -185.609375 79.789062 -184.402344 L 79.789062 -183.921875 C 81.234375 -180.066406 83.402344 -174.761719 83.402344 -168.734375 C 83.402344 -156.199219 82.679688 -143.425781 81.957031 -130.890625 C 70.144531 -127.273438 57.851562 -121.488281 45.316406 -121.488281 C 40.738281 -121.488281 36.640625 -123.417969 32.542969 -123.417969 C 31.578125 -123.417969 30.132812 -123.175781 30.132812 -121.972656 C 30.132812 -120.765625 31.09375 -119.800781 31.578125 -119.078125 C 40.015625 -108.472656 52.550781 -104.375 65.808594 -104.375 C 70.867188 -104.375 75.929688 -105.097656 80.992188 -106.0625 C 80.992188 -99.3125 80.75 -92.324219 80.75 -85.332031 C 80.75 -78.339844 80.992188 -71.351562 80.992188 -64.359375 C 74.003906 -60.746094 42.664062 -41.703125 37.363281 -41.703125 C 35.433594 -41.703125 33.507812 -42.425781 31.578125 -42.425781 C 30.132812 -42.425781 29.890625 -41.703125 29.890625 -40.496094 C 29.890625 -31.578125 39.050781 -21.695312 47.96875 -21.695312 C 53.03125 -21.695312 57.128906 -24.585938 60.746094 -27.480469 C 80.992188 -16.875 76.171875 4.339844 89.910156 4.339844 C 101.722656 4.339844 105.578125 -13.980469 105.578125 -22.898438 C 105.578125 -35.675781 103.894531 -48.691406 103.167969 -61.46875 C 117.152344 -70.867188 137.398438 -81.234375 154.511719 -81.234375 C 168.496094 -81.234375 172.59375 -72.796875 172.59375 -59.78125 C 172.59375 -45.800781 158.609375 -26.273438 143.183594 -26.273438 C 133.78125 -26.273438 131.371094 -29.648438 127.757812 -33.507812 C 127.035156 -34.230469 126.550781 -35.917969 125.828125 -35.917969 L 125.585938 -35.917969 C 125.105469 -35.675781 125.105469 -34.953125 125.105469 -34.230469 Z M 188.984375 -86.777344 C 202.964844 -94.25 229.480469 -115.464844 229.480469 -132.09375 C 229.480469 -145.113281 213.8125 -154.03125 202.242188 -154.03125 C 199.832031 -154.03125 190.671875 -153.066406 190.671875 -149.691406 C 190.671875 -146.316406 193.324219 -145.835938 194.285156 -145.113281 C 198.382812 -141.980469 201.035156 -139.808594 201.035156 -132.335938 C 201.035156 -114.257812 183.4375 -86.777344 183.4375 -86.054688 C 183.4375 -85.574219 183.921875 -85.332031 184.402344 -85.332031 C 185.851562 -85.332031 187.539062 -86.296875 188.984375 -86.777344 Z M 81.714844 -32.058594 C 81.714844 -29.890625 81.714844 -27.238281 80.75 -25.792969 C 80.511719 -25.792969 66.289062 -30.371094 64.601562 -30.855469 C 70.386719 -35.433594 75.929688 -40.253906 81.476562 -44.835938 C 81.714844 -41.460938 81.714844 -38.085938 81.714844 -34.46875 Z M 81.714844 -32.058594 "/></g></g></g><g fill="#32373c" fill-opacity="1"><g transform="translate(881.654698, 239.408205)"><g><path d="M 69.90625 -78.824219 C 67.011719 -79.304688 65.566406 -87.984375 63.394531 -96.660156 C 59.296875 -112.328125 52.308594 -125.347656 41.460938 -137.640625 C 37.605469 -141.980469 33.507812 -145.835938 29.648438 -148.488281 C 28.925781 -148.96875 27.722656 -149.453125 26.515625 -149.453125 C 26.035156 -149.453125 25.308594 -149.210938 24.828125 -148.726562 C 24.585938 -148.488281 24.347656 -148.003906 24.347656 -147.523438 C 24.347656 -146.800781 24.828125 -146.078125 25.070312 -145.351562 L 28.683594 -138.605469 C 31.335938 -130.410156 33.507812 -121.488281 34.46875 -113.050781 C 37.84375 -87.742188 37.84375 -56.886719 58.09375 -38.566406 C 61.46875 -35.433594 67.492188 -30.855469 72.316406 -30.855469 C 76.171875 -30.855469 78.582031 -33.023438 80.027344 -36.398438 C 82.679688 -42.425781 82.921875 -49.898438 84.609375 -56.40625 C 88.464844 -70.867188 94.007812 -84.125 98.832031 -98.109375 C 99.070312 -98.589844 99.070312 -99.070312 99.070312 -99.554688 C 99.070312 -100.277344 98.832031 -101 98.347656 -101.480469 C 97.867188 -101.722656 97.625 -101.964844 97.382812 -101.964844 C 96.660156 -101.964844 96.179688 -101.242188 95.457031 -100.757812 C 89.910156 -96.179688 75.207031 -78.824219 70.144531 -78.824219 Z M 168.734375 -137.878906 C 165.601562 -138.84375 161.984375 -140.050781 158.851562 -140.050781 C 157.648438 -140.050781 155.960938 -139.808594 155.960938 -138.363281 C 155.960938 -136.917969 158.371094 -134.507812 159.335938 -133.542969 C 163.914062 -128.722656 168.011719 -123.417969 171.386719 -117.632812 C 178.859375 -105.097656 185.609375 -90.152344 185.609375 -75.449219 C 185.609375 -63.636719 176.929688 -55.683594 172.109375 -51.585938 C 170.664062 -50.378906 169.457031 -49.175781 169.457031 -48.449219 C 169.457031 -47.003906 171.628906 -47.003906 172.59375 -47.003906 C 189.464844 -47.003906 217.910156 -59.539062 217.910156 -79.304688 C 217.910156 -105.339844 191.152344 -129.203125 168.734375 -137.878906 Z M 168.734375 -137.878906 "/></g></g></g><g fill="#32373c" fill-opacity="1"><g transform="translate(1121.017251, 239.408205)"><g><path d="M 96.179688 -55.441406 C 82.679688 -55.441406 61.707031 -51.34375 61.707031 -33.988281 C 61.707031 -11.570312 92.804688 -2.894531 110.402344 -2.894531 C 143.183594 -2.894531 185.125 -26.273438 185.125 -63.394531 C 185.125 -107.507812 131.371094 -104.132812 102.207031 -115.222656 C 100.277344 -115.945312 97.625 -116.910156 97.625 -119.320312 C 97.625 -126.308594 119.5625 -146.078125 125.585938 -150.175781 C 128.238281 -151.863281 134.988281 -153.308594 138.605469 -154.511719 C 142.460938 -155.71875 146.558594 -157.886719 146.558594 -162.46875 C 146.558594 -171.628906 134.265625 -179.582031 126.070312 -179.582031 C 116.425781 -179.582031 109.679688 -172.832031 100.519531 -170.664062 C 92.5625 -168.496094 83.644531 -167.289062 75.207031 -167.289062 C 67.976562 -167.289062 62.433594 -169.699219 60.503906 -170.664062 C 60.023438 -170.90625 59.78125 -171.144531 59.296875 -171.144531 C 58.816406 -171.144531 58.574219 -170.664062 58.574219 -169.457031 C 58.574219 -168.976562 58.574219 -168.253906 58.816406 -167.289062 C 59.058594 -164.878906 60.023438 -162.226562 61.46875 -160.296875 C 70.386719 -148.003906 80.75 -143.90625 95.695312 -143.90625 C 96.421875 -143.90625 96.902344 -143.90625 96.902344 -143.667969 C 96.902344 -143.425781 96.660156 -143.183594 96.421875 -142.703125 C 94.734375 -139.566406 88.222656 -128.480469 88.222656 -117.390625 C 88.222656 -93.769531 131.855469 -92.082031 146.800781 -79.546875 C 149.210938 -77.617188 150.175781 -74.726562 151.863281 -72.316406 C 154.511719 -68.941406 155.71875 -65.324219 155.71875 -60.984375 C 155.71875 -52.066406 150.414062 -42.183594 142.703125 -37.363281 C 132.820312 -50.378906 115.945312 -55.441406 97.382812 -55.441406 Z M 77.617188 -38.328125 C 77.617188 -46.523438 83.886719 -50.621094 91.839844 -50.621094 C 100.277344 -50.378906 105.820312 -46.765625 109.917969 -39.292969 C 110.882812 -37.605469 113.292969 -31.335938 116.1875 -28.445312 C 110.882812 -27.238281 106.785156 -26.996094 101.480469 -26.996094 C 95.457031 -26.996094 78.339844 -28.445312 77.617188 -36.640625 Z M 77.617188 -38.328125 "/></g></g></g></svg>