<svg xmlns="http://www.w3.org/2000/svg" xmlns:xlink="http://www.w3.org/1999/xlink" width="500" zoomAndPan="magnify" viewBox="0 0 375 374.999991" height="500" preserveAspectRatio="xMidYMid meet" version="1.0"><defs><g/><clipPath id="20069d6ba6"><path d="M 0.132812 0 L 374.867188 0 L 374.867188 189.5625 L 0.132812 189.5625 Z M 0.132812 0 " clip-rule="nonzero"/></clipPath></defs><g clip-path="url(#20069d6ba6)"><path fill="#5ce1e6" d="M 350.738281 0.789062 C 353.855469 0.789062 357.113281 0.820312 359.871094 2.265625 C 364.652344 4.773438 366.453125 10.605469 367.65625 15.871094 C 373.738281 42.585938 376 70.171875 374.339844 97.523438 C 373.601562 109.628906 371.945312 122.15625 365.433594 132.386719 C 358.925781 142.625 346.34375 149.894531 334.628906 146.761719 C 327.3125 144.800781 321.261719 139.175781 313.792969 137.90625 C 300.15625 135.589844 288.863281 148.207031 281.835938 160.117188 C 274.808594 172.03125 267.308594 185.949219 253.820312 189.003906 C 241.785156 191.734375 229.355469 184.0625 222.539062 173.777344 C 218.769531 168.089844 215.050781 160.769531 208.25 160.265625 C 205.6875 160.074219 203.171875 160.976562 200.785156 161.9375 C 183.355469 168.9375 164.328125 179.949219 147.148438 172.351562 C 129.277344 164.453125 125.09375 141.675781 120.589844 122.660156 C 119.449219 117.84375 118.046875 112.886719 114.800781 109.148438 C 101.933594 94.339844 75.367188 110.394531 58.566406 100.261719 C 48.316406 94.082031 44.988281 79.867188 34.542969 74.027344 C 29.410156 71.15625 23.234375 70.742188 17.929688 68.210938 C 9.929688 64.390625 4.808594 56.09375 2.667969 47.496094 C 2.667969 47.496094 2.667969 47.492188 2.667969 47.492188 C 0.527344 38.886719 -2.082031 19.507812 3.402344 11.683594 C 8.277344 4.730469 22.40625 2.980469 30.433594 1.703125 C 50.402344 -1.472656 71.890625 0.773438 92.023438 0.777344 C 147.617188 0.777344 203.214844 0.777344 258.808594 0.78125 C 289.453125 0.785156 320.097656 0.785156 350.738281 0.789062 " fill-opacity="1" fill-rule="nonzero"/></g><g fill="#32373c" fill-opacity="1"><g transform="translate(32.034575, 304.082527)"><g><path d="M 174.425781 -80.214844 C 174.425781 -55.964844 173.800781 -29.226562 159.5 -8.394531 C 149.863281 5.597656 138.046875 13.058594 122.8125 20.210938 C 121.566406 20.832031 116.90625 22.695312 116.90625 24.25 C 116.90625 25.183594 118.769531 25.496094 120.636719 25.496094 C 122.191406 25.496094 123.746094 25.183594 124.367188 25.183594 C 186.859375 17.101562 209.558594 -20.210938 209.558594 -79.90625 C 209.558594 -108.199219 209.246094 -143.644531 199.296875 -170.070312 C 194.632812 -182.507812 183.75 -191.835938 170.070312 -191.835938 C 156.390625 -191.835938 149.863281 -183.441406 138.359375 -179.398438 L 138.359375 -183.75 C 138.359375 -197.742188 139.601562 -207.382812 140.84375 -218.261719 L 140.84375 -219.195312 C 140.84375 -224.480469 138.359375 -243.757812 134.316406 -254.019531 C 132.761719 -258.058594 130.894531 -260.859375 129.03125 -260.859375 C 127.785156 -260.859375 126.542969 -257.75 124.675781 -253.398438 C 120.945312 -243.136719 116.90625 -225.101562 115.972656 -221.371094 C 109.753906 -192.457031 102.292969 -164.164062 102.292969 -134.316406 C 102.292969 -121.257812 104.46875 -81.769531 123.121094 -81.769531 C 130.273438 -81.769531 136.492188 -88.609375 136.492188 -95.453125 L 136.492188 -96.695312 C 136.492188 -114.417969 136.804688 -180.332031 160.121094 -180.332031 C 174.113281 -180.332031 174.425781 -106.957031 174.425781 -90.789062 Z M 174.425781 -80.214844 "/></g></g></g></svg>