<svg xmlns="http://www.w3.org/2000/svg" xmlns:xlink="http://www.w3.org/1999/xlink" width="1750" zoomAndPan="magnify" viewBox="0 0 1312.5 299.999988" height="400" preserveAspectRatio="xMidYMid meet" version="1.0"><defs><g/><clipPath id="47b75f7137"><path d="M 711.539062 3.6875 L 1290.066406 3.6875 L 1290.066406 296.339844 L 711.539062 296.339844 Z M 711.539062 3.6875 " clip-rule="nonzero"/></clipPath></defs><g clip-path="url(#47b75f7137)"><path fill="#5ce1e6" d="M 1252.820312 4.902344 C 1257.628906 4.902344 1262.660156 4.953125 1266.917969 7.183594 C 1274.304688 11.054688 1277.082031 20.058594 1278.9375 28.1875 C 1288.328125 69.429688 1291.816406 112.019531 1289.253906 154.25 C 1288.113281 172.9375 1285.558594 192.277344 1275.503906 208.074219 C 1265.457031 223.875 1246.035156 235.101562 1227.949219 230.261719 C 1216.652344 227.238281 1207.3125 218.550781 1195.78125 216.59375 C 1174.726562 213.015625 1157.296875 232.492188 1146.445312 250.886719 C 1135.597656 269.277344 1124.015625 290.761719 1103.195312 295.480469 C 1084.613281 299.695312 1065.421875 287.851562 1054.894531 271.96875 C 1049.078125 263.191406 1043.339844 251.894531 1032.839844 251.109375 C 1028.878906 250.816406 1024.996094 252.210938 1021.3125 253.691406 C 994.402344 264.5 965.03125 281.5 938.507812 269.773438 C 910.914062 257.574219 904.457031 222.410156 897.503906 193.054688 C 895.746094 185.621094 893.582031 177.964844 888.570312 172.195312 C 868.699219 149.332031 827.6875 174.117188 801.75 158.472656 C 785.925781 148.9375 780.785156 126.988281 764.660156 117.972656 C 756.738281 113.542969 747.203125 112.902344 739.011719 108.992188 C 726.664062 103.097656 718.753906 90.289062 715.449219 77.011719 C 715.449219 77.011719 715.449219 77.003906 715.449219 77.003906 C 712.144531 63.722656 708.117188 33.804688 716.582031 21.722656 C 724.109375 10.988281 745.921875 8.289062 758.320312 6.316406 C 789.148438 1.414062 822.320312 4.878906 853.402344 4.882812 C 939.230469 4.882812 1025.066406 4.886719 1110.894531 4.894531 C 1158.203125 4.898438 1205.511719 4.898438 1252.820312 4.902344 " fill-opacity="1" fill-rule="nonzero"/></g><g fill="#32373c" fill-opacity="1"><g transform="translate(-75.807653, 239.631409)"><g><path d="M 135.339844 -62.242188 C 135.339844 -43.425781 134.855469 -22.675781 123.761719 -6.515625 C 116.28125 4.34375 107.113281 10.132812 95.292969 15.679688 C 94.328125 16.164062 90.710938 17.609375 90.710938 18.816406 C 90.710938 19.542969 92.15625 19.78125 93.605469 19.78125 C 94.808594 19.78125 96.015625 19.542969 96.5 19.542969 C 144.988281 13.269531 162.601562 -15.679688 162.601562 -62 C 162.601562 -83.953125 162.359375 -111.457031 154.640625 -131.960938 C 151.019531 -141.613281 142.578125 -148.851562 131.960938 -148.851562 C 121.347656 -148.851562 116.28125 -142.335938 107.355469 -139.199219 L 107.355469 -142.578125 C 107.355469 -153.433594 108.320312 -160.910156 109.285156 -169.355469 L 109.285156 -170.078125 C 109.285156 -174.179688 107.355469 -189.136719 104.21875 -197.097656 C 103.011719 -200.234375 101.566406 -202.40625 100.117188 -202.40625 C 99.152344 -202.40625 98.1875 -199.992188 96.738281 -196.617188 C 93.84375 -188.65625 90.710938 -174.664062 89.984375 -171.769531 C 85.160156 -149.332031 79.371094 -127.378906 79.371094 -104.21875 C 79.371094 -94.085938 81.058594 -63.449219 95.535156 -63.449219 C 101.082031 -63.449219 105.90625 -68.753906 105.90625 -74.0625 L 105.90625 -75.027344 C 105.90625 -88.777344 106.148438 -139.921875 124.242188 -139.921875 C 135.097656 -139.921875 135.339844 -82.988281 135.339844 -70.445312 Z M 135.339844 -62.242188 "/></g></g></g><g fill="#32373c" fill-opacity="1"><g transform="translate(163.750593, 239.631409)"><g><path d="M 125.207031 -32.808594 C 125.207031 -19.542969 141.128906 -2.652344 156.328125 -2.652344 C 179.246094 -2.652344 196.132812 -26.296875 196.132812 -48.007812 C 196.132812 -73.582031 177.316406 -87.8125 152.949219 -87.8125 C 136.546875 -87.8125 117.730469 -81.300781 102.769531 -74.785156 C 102.53125 -78.648438 102.53125 -82.507812 102.53125 -86.125 C 102.53125 -94.808594 103.011719 -103.496094 103.738281 -112.179688 C 112.664062 -115.074219 147.402344 -124.964844 147.402344 -136.0625 C 147.402344 -144.988281 133.890625 -148.367188 126.894531 -148.367188 C 122.796875 -148.367188 111.457031 -142.09375 107.113281 -140.40625 C 107.597656 -145.230469 108.5625 -150.539062 108.5625 -155.605469 C 108.5625 -167.183594 98.910156 -177.800781 89.503906 -183.347656 C 87.574219 -184.3125 84.195312 -186.242188 82.023438 -186.242188 C 81.058594 -186.242188 79.851562 -185.761719 79.851562 -184.554688 L 79.851562 -184.070312 C 81.300781 -180.210938 83.472656 -174.90625 83.472656 -168.875 C 83.472656 -156.328125 82.746094 -143.542969 82.023438 -130.996094 C 70.203125 -127.378906 57.898438 -121.589844 45.355469 -121.589844 C 40.769531 -121.589844 36.667969 -123.519531 32.570312 -123.519531 C 31.601562 -123.519531 30.15625 -123.277344 30.15625 -122.070312 C 30.15625 -120.863281 31.121094 -119.898438 31.601562 -119.175781 C 40.046875 -108.5625 52.59375 -104.460938 65.859375 -104.460938 C 70.925781 -104.460938 75.992188 -105.183594 81.058594 -106.148438 C 81.058594 -99.394531 80.816406 -92.398438 80.816406 -85.402344 C 80.816406 -78.40625 81.058594 -71.410156 81.058594 -64.414062 C 74.0625 -60.792969 42.699219 -41.734375 37.394531 -41.734375 C 35.464844 -41.734375 33.535156 -42.460938 31.601562 -42.460938 C 30.15625 -42.460938 29.914062 -41.734375 29.914062 -40.53125 C 29.914062 -31.601562 39.082031 -21.710938 48.007812 -21.710938 C 53.074219 -21.710938 57.175781 -24.605469 60.792969 -27.503906 C 81.058594 -16.886719 76.234375 4.34375 89.984375 4.34375 C 101.804688 4.34375 105.667969 -13.992188 105.667969 -22.917969 C 105.667969 -35.703125 103.976562 -48.730469 103.253906 -61.519531 C 117.246094 -70.925781 137.511719 -81.300781 154.640625 -81.300781 C 168.632812 -81.300781 172.734375 -72.855469 172.734375 -59.828125 C 172.734375 -45.835938 158.742188 -26.296875 143.300781 -26.296875 C 133.890625 -26.296875 131.480469 -29.671875 127.859375 -33.535156 C 127.136719 -34.257812 126.65625 -35.945312 125.929688 -35.945312 L 125.691406 -35.945312 C 125.207031 -35.703125 125.207031 -34.980469 125.207031 -34.257812 Z M 189.136719 -86.847656 C 203.128906 -94.328125 229.667969 -115.558594 229.667969 -132.203125 C 229.667969 -145.230469 213.988281 -154.15625 202.40625 -154.15625 C 199.992188 -154.15625 190.828125 -153.191406 190.828125 -149.816406 C 190.828125 -146.4375 193.480469 -145.953125 194.445312 -145.230469 C 198.546875 -142.09375 201.199219 -139.921875 201.199219 -132.445312 C 201.199219 -114.351562 183.589844 -86.847656 183.589844 -86.125 C 183.589844 -85.644531 184.070312 -85.402344 184.554688 -85.402344 C 186 -85.402344 187.691406 -86.367188 189.136719 -86.847656 Z M 81.78125 -32.085938 C 81.78125 -29.914062 81.78125 -27.261719 80.816406 -25.8125 C 80.578125 -25.8125 66.34375 -30.398438 64.65625 -30.878906 C 70.445312 -35.464844 75.992188 -40.289062 81.542969 -44.871094 C 81.78125 -41.496094 81.78125 -38.117188 81.78125 -34.5 Z M 81.78125 -32.085938 "/></g></g></g><g fill="#32373c" fill-opacity="1"><g transform="translate(403.308839, 239.631409)"><g><path d="M 122.796875 1.6875 C 123.035156 2.171875 123.519531 2.414062 124 2.414062 C 125.449219 2.414062 127.378906 1.6875 129.792969 0.722656 C 170.320312 -13.75 208.921875 -43.664062 208.921875 -91.191406 C 208.921875 -138.234375 179.003906 -164.53125 132.925781 -164.53125 C 106.871094 -164.53125 76.714844 -154.398438 55.96875 -136.0625 C 39.082031 -121.105469 31.121094 -104.460938 31.121094 -82.023438 L 31.121094 -80.09375 C 31.363281 -68.996094 44.148438 -36.910156 57.175781 -36.910156 C 77.921875 -36.910156 104.941406 -77.441406 113.386719 -94.328125 C 118.453125 -104.703125 121.828125 -120.382812 121.828125 -131.960938 C 121.828125 -137.753906 120.382812 -150.054688 117.96875 -155.363281 C 121.589844 -156.328125 125.449219 -156.570312 129.066406 -156.570312 C 135.582031 -156.570312 141.851562 -155.363281 147.644531 -152.46875 C 153.433594 -149.574219 159.945312 -146.917969 164.53125 -142.335938 C 176.109375 -130.757812 178.765625 -112.902344 178.765625 -97.222656 C 178.765625 -54.761719 161.152344 -27.019531 127.378906 -2.652344 C 124.484375 -0.484375 122.796875 0 122.796875 1.207031 Z M 111.9375 -153.914062 C 109.769531 -124.484375 79.371094 -73.339844 51.867188 -61.519531 C 50.660156 -61.035156 47.527344 -60.070312 46.320312 -60.070312 C 43.664062 -60.070312 43.425781 -62.964844 43.425781 -65.136719 C 43.425781 -98.671875 80.578125 -143.785156 111.9375 -153.914062 Z M 111.9375 -153.914062 "/></g></g></g><g fill="#32373c" fill-opacity="1"><g transform="translate(642.867085, 239.631409)"><g><path d="M 125.207031 -32.808594 C 125.207031 -19.542969 141.128906 -2.652344 156.328125 -2.652344 C 179.246094 -2.652344 196.132812 -26.296875 196.132812 -48.007812 C 196.132812 -73.582031 177.316406 -87.8125 152.949219 -87.8125 C 136.546875 -87.8125 117.730469 -81.300781 102.769531 -74.785156 C 102.53125 -78.648438 102.53125 -82.507812 102.53125 -86.125 C 102.53125 -94.808594 103.011719 -103.496094 103.738281 -112.179688 C 112.664062 -115.074219 147.402344 -124.964844 147.402344 -136.0625 C 147.402344 -144.988281 133.890625 -148.367188 126.894531 -148.367188 C 122.796875 -148.367188 111.457031 -142.09375 107.113281 -140.40625 C 107.597656 -145.230469 108.5625 -150.539062 108.5625 -155.605469 C 108.5625 -167.183594 98.910156 -177.800781 89.503906 -183.347656 C 87.574219 -184.3125 84.195312 -186.242188 82.023438 -186.242188 C 81.058594 -186.242188 79.851562 -185.761719 79.851562 -184.554688 L 79.851562 -184.070312 C 81.300781 -180.210938 83.472656 -174.90625 83.472656 -168.875 C 83.472656 -156.328125 82.746094 -143.542969 82.023438 -130.996094 C 70.203125 -127.378906 57.898438 -121.589844 45.355469 -121.589844 C 40.769531 -121.589844 36.667969 -123.519531 32.570312 -123.519531 C 31.601562 -123.519531 30.15625 -123.277344 30.15625 -122.070312 C 30.15625 -120.863281 31.121094 -119.898438 31.601562 -119.175781 C 40.046875 -108.5625 52.59375 -104.460938 65.859375 -104.460938 C 70.925781 -104.460938 75.992188 -105.183594 81.058594 -106.148438 C 81.058594 -99.394531 80.816406 -92.398438 80.816406 -85.402344 C 80.816406 -78.40625 81.058594 -71.410156 81.058594 -64.414062 C 74.0625 -60.792969 42.699219 -41.734375 37.394531 -41.734375 C 35.464844 -41.734375 33.535156 -42.460938 31.601562 -42.460938 C 30.15625 -42.460938 29.914062 -41.734375 29.914062 -40.53125 C 29.914062 -31.601562 39.082031 -21.710938 48.007812 -21.710938 C 53.074219 -21.710938 57.175781 -24.605469 60.792969 -27.503906 C 81.058594 -16.886719 76.234375 4.34375 89.984375 4.34375 C 101.804688 4.34375 105.667969 -13.992188 105.667969 -22.917969 C 105.667969 -35.703125 103.976562 -48.730469 103.253906 -61.519531 C 117.246094 -70.925781 137.511719 -81.300781 154.640625 -81.300781 C 168.632812 -81.300781 172.734375 -72.855469 172.734375 -59.828125 C 172.734375 -45.835938 158.742188 -26.296875 143.300781 -26.296875 C 133.890625 -26.296875 131.480469 -29.671875 127.859375 -33.535156 C 127.136719 -34.257812 126.65625 -35.945312 125.929688 -35.945312 L 125.691406 -35.945312 C 125.207031 -35.703125 125.207031 -34.980469 125.207031 -34.257812 Z M 189.136719 -86.847656 C 203.128906 -94.328125 229.667969 -115.558594 229.667969 -132.203125 C 229.667969 -145.230469 213.988281 -154.15625 202.40625 -154.15625 C 199.992188 -154.15625 190.828125 -153.191406 190.828125 -149.816406 C 190.828125 -146.4375 193.480469 -145.953125 194.445312 -145.230469 C 198.546875 -142.09375 201.199219 -139.921875 201.199219 -132.445312 C 201.199219 -114.351562 183.589844 -86.847656 183.589844 -86.125 C 183.589844 -85.644531 184.070312 -85.402344 184.554688 -85.402344 C 186 -85.402344 187.691406 -86.367188 189.136719 -86.847656 Z M 81.78125 -32.085938 C 81.78125 -29.914062 81.78125 -27.261719 80.816406 -25.8125 C 80.578125 -25.8125 66.34375 -30.398438 64.65625 -30.878906 C 70.445312 -35.464844 75.992188 -40.289062 81.542969 -44.871094 C 81.78125 -41.496094 81.78125 -38.117188 81.78125 -34.5 Z M 81.78125 -32.085938 "/></g></g></g><g fill="#32373c" fill-opacity="1"><g transform="translate(882.425331, 239.631409)"><g><path d="M 69.960938 -78.886719 C 67.066406 -79.371094 65.621094 -88.054688 63.449219 -96.738281 C 59.347656 -112.421875 52.351562 -125.449219 41.496094 -137.753906 C 37.632812 -142.09375 33.535156 -145.953125 29.671875 -148.609375 C 28.949219 -149.089844 27.742188 -149.574219 26.539062 -149.574219 C 26.054688 -149.574219 25.332031 -149.332031 24.847656 -148.851562 C 24.605469 -148.609375 24.367188 -148.125 24.367188 -147.644531 C 24.367188 -146.917969 24.847656 -146.195312 25.089844 -145.472656 L 28.707031 -138.71875 C 31.363281 -130.515625 33.535156 -121.589844 34.5 -113.144531 C 37.875 -87.8125 37.875 -56.933594 58.140625 -38.597656 C 61.519531 -35.464844 67.550781 -30.878906 72.375 -30.878906 C 76.234375 -30.878906 78.648438 -33.050781 80.09375 -36.429688 C 82.746094 -42.460938 82.988281 -49.9375 84.679688 -56.453125 C 88.539062 -70.925781 94.085938 -84.195312 98.910156 -98.1875 C 99.152344 -98.671875 99.152344 -99.152344 99.152344 -99.636719 C 99.152344 -100.359375 98.910156 -101.082031 98.429688 -101.566406 C 97.945312 -101.804688 97.707031 -102.046875 97.464844 -102.046875 C 96.738281 -102.046875 96.257812 -101.324219 95.535156 -100.839844 C 89.984375 -96.257812 75.269531 -78.886719 70.203125 -78.886719 Z M 168.875 -137.992188 C 165.738281 -138.957031 162.117188 -140.164062 158.980469 -140.164062 C 157.777344 -140.164062 156.085938 -139.921875 156.085938 -138.476562 C 156.085938 -137.027344 158.5 -134.617188 159.464844 -133.652344 C 164.046875 -128.824219 168.148438 -123.519531 171.527344 -117.730469 C 179.003906 -105.183594 185.761719 -90.226562 185.761719 -75.511719 C 185.761719 -63.6875 177.074219 -55.726562 172.25 -51.628906 C 170.804688 -50.421875 169.597656 -49.214844 169.597656 -48.492188 C 169.597656 -47.042969 171.769531 -47.042969 172.734375 -47.042969 C 189.621094 -47.042969 218.085938 -59.589844 218.085938 -79.371094 C 218.085938 -105.425781 191.308594 -129.308594 168.875 -137.992188 Z M 168.875 -137.992188 "/></g></g></g><g fill="#32373c" fill-opacity="1"><g transform="translate(1121.983577, 239.631409)"><g><path d="M 96.257812 -55.488281 C 82.746094 -55.488281 61.757812 -51.386719 61.757812 -34.015625 C 61.757812 -11.578125 92.878906 -2.894531 110.492188 -2.894531 C 143.300781 -2.894531 185.277344 -26.296875 185.277344 -63.449219 C 185.277344 -107.597656 131.480469 -104.21875 102.289062 -115.316406 C 100.359375 -116.039062 97.707031 -117.003906 97.707031 -119.417969 C 97.707031 -126.414062 119.660156 -146.195312 125.691406 -150.296875 C 128.34375 -151.984375 135.097656 -153.433594 138.71875 -154.640625 C 142.578125 -155.847656 146.679688 -158.015625 146.679688 -162.601562 C 146.679688 -171.769531 134.375 -179.730469 126.171875 -179.730469 C 116.523438 -179.730469 109.769531 -172.972656 100.601562 -170.804688 C 92.640625 -168.632812 83.710938 -167.425781 75.269531 -167.425781 C 68.03125 -167.425781 62.484375 -169.839844 60.554688 -170.804688 C 60.070312 -171.042969 59.828125 -171.285156 59.347656 -171.285156 C 58.863281 -171.285156 58.625 -170.804688 58.625 -169.597656 C 58.625 -169.113281 58.625 -168.390625 58.863281 -167.425781 C 59.105469 -165.011719 60.070312 -162.359375 61.519531 -160.429688 C 70.445312 -148.125 80.816406 -144.023438 95.773438 -144.023438 C 96.5 -144.023438 96.980469 -144.023438 96.980469 -143.785156 C 96.980469 -143.542969 96.738281 -143.300781 96.5 -142.820312 C 94.808594 -139.683594 88.296875 -128.585938 88.296875 -117.488281 C 88.296875 -93.84375 131.960938 -92.15625 146.917969 -79.613281 C 149.332031 -77.683594 150.296875 -74.785156 151.984375 -72.375 C 154.640625 -68.996094 155.847656 -65.378906 155.847656 -61.035156 C 155.847656 -52.109375 150.539062 -42.21875 142.820312 -37.394531 C 132.925781 -50.421875 116.039062 -55.488281 97.464844 -55.488281 Z M 77.683594 -38.359375 C 77.683594 -46.5625 83.953125 -50.660156 91.914062 -50.660156 C 100.359375 -50.421875 105.90625 -46.800781 110.007812 -39.324219 C 110.972656 -37.632812 113.386719 -31.363281 116.28125 -28.46875 C 110.972656 -27.261719 106.871094 -27.019531 101.566406 -27.019531 C 95.535156 -27.019531 78.40625 -28.46875 77.683594 -36.667969 Z M 77.683594 -38.359375 "/></g></g></g></svg>